<?xml version="1.0" encoding="UTF-8"?>
<svg id="Layer_1" data-name="Layer 1" xmlns="http://www.w3.org/2000/svg" viewBox="0 0 1300 900">
  <defs>
    <style>
      .cls-1 {
        fill: #0d0d0d;
      }

      .cls-2 {
        fill: #305cde;
      }
    </style>
  </defs>
  <g>
    <polygon class="cls-2" points="455.66 451.36 453.51 447.81 451.75 447.81 451.75 447.81 435.82 447.81 435.82 447.81 447.08 466.1 424.56 466.1 417.8 477.08 415.3 481.14 418.44 481.14 420.8 481.14 451.68 481.14 454.15 481.14 456.39 481.14 458.19 477.8 464.73 466.1 461.31 460.54 455.66 451.36"/>
    <polygon class="cls-2" points="424.44 466.19 444.39 433.85 462.16 433.85 471.28 418.86 453.63 418.86 436.09 418.86 415.91 418.86 406.79 433.85 426.81 433.85 406.78 466.19 424.44 466.19"/>
  </g>
  <g>
    <path class="cls-1" d="M592.46,435.47v39.26h-9.99v-4.96c-1.28,1.7-2.94,3.04-5,4-2.05.97-4.29,1.45-6.7,1.45-3.07,0-5.79-.65-8.15-1.95-2.36-1.3-4.22-3.21-5.56-5.74-1.35-2.53-2.02-5.54-2.02-9.04v-23.03h9.92v21.62c0,3.12.78,5.52,2.34,7.19,1.56,1.68,3.69,2.52,6.38,2.52s4.89-.84,6.45-2.52c1.56-1.68,2.34-4.08,2.34-7.19v-21.62h9.99Z"/>
    <path class="cls-1" d="M634.91,458.08h-28.7c.24,2.84,1.23,5.06,2.98,6.66,1.75,1.61,3.9,2.41,6.45,2.41,3.68,0,6.31-1.58,7.87-4.75h10.7c-1.13,3.78-3.31,6.89-6.52,9.32-3.21,2.43-7.16,3.65-11.83,3.65-3.78,0-7.17-.84-10.17-2.51-3-1.68-5.34-4.05-7.02-7.12-1.68-3.07-2.52-6.61-2.52-10.63s.83-7.63,2.48-10.7c1.65-3.07,3.97-5.43,6.95-7.09,2.98-1.65,6.4-2.48,10.28-2.48s7.08.8,10.03,2.41c2.95,1.61,5.24,3.89,6.87,6.84,1.63,2.95,2.45,6.34,2.45,10.17,0,1.42-.1,2.69-.28,3.83M624.92,451.42c-.05-2.55-.97-4.59-2.76-6.13-1.8-1.53-3.99-2.3-6.59-2.3-2.46,0-4.52.74-6.2,2.23-1.68,1.49-2.7,3.55-3.08,6.2h18.64Z"/>
    <path class="cls-1" d="M861.33,475.29c-.52-.5-.78-1.13-.78-1.87s.26-1.37.78-1.87c.52-.5,1.19-.75,2-.75s1.44.25,1.95.75c.51.5.77,1.13.77,1.87s-.26,1.37-.77,1.87c-.51.5-1.16.75-1.95.75s-1.48-.25-2-.75"/>
    <path class="cls-1" d="M867.99,462.11c.71-1.39,1.69-2.45,2.91-3.2,1.23-.75,2.6-1.12,4.12-1.12,1.32,0,2.48.27,3.47.8.99.53,1.79,1.21,2.39,2.02v-2.53h4.52v17.74h-4.52v-2.59c-.58.83-1.37,1.52-2.39,2.07-1.01.54-2.18.82-3.51.82-1.49,0-2.86-.38-4.08-1.15-1.23-.77-2.2-1.85-2.91-3.25-.72-1.4-1.07-3.01-1.07-4.82s.36-3.38,1.07-4.77M880.24,464.14c-.43-.78-1-1.38-1.73-1.79-.73-.42-1.51-.62-2.34-.62s-1.6.2-2.31.61c-.71.41-1.28,1-1.71,1.78-.44.78-.66,1.7-.66,2.77s.22,2,.66,2.8c.44.8,1.01,1.41,1.73,1.84.71.43,1.48.64,2.29.64s1.61-.21,2.34-.62c.73-.42,1.3-1.01,1.73-1.79.43-.78.64-1.71.64-2.8s-.21-2.02-.64-2.8"/>
    <path class="cls-1" d="M888.49,455.21c-.52-.5-.79-1.13-.79-1.87s.26-1.37.79-1.87c.52-.5,1.18-.75,1.97-.75s1.45.25,1.97.75c.52.5.78,1.13.78,1.87s-.26,1.37-.78,1.87c-.52.5-1.18.75-1.97.75s-1.45-.25-1.97-.75M892.67,475.82h-4.48v-17.74h4.48v17.74Z"/>
    <path class="cls-1" d="M721.21,436.62v39.26h-9.99v-4.96c-1.28,1.7-2.94,3.04-5,4-2.05.97-4.29,1.45-6.7,1.45-3.07,0-5.79-.65-8.15-1.95-2.36-1.3-4.22-3.21-5.56-5.74-1.35-2.53-2.02-5.54-2.02-9.04v-23.03h9.92v21.62c0,3.12.78,5.52,2.34,7.19,1.56,1.68,3.68,2.52,6.38,2.52s4.89-.84,6.45-2.52c1.56-1.68,2.34-4.08,2.34-7.19v-21.62h9.99Z"/>
    <path class="cls-1" d="M732.48,432.79c1.75,0,3.2-.55,4.36-1.66,1.16-1.11,1.74-2.49,1.74-4.15s-.58-3.04-1.74-4.15c-1.16-1.11-2.61-1.67-4.36-1.67s-3.2.56-4.36,1.67c-1.16,1.11-1.74,2.49-1.74,4.15s.58,3.03,1.74,4.15c1.16,1.11,2.61,1.66,4.36,1.66"/>
    <rect class="cls-1" x="727.45" y="436.62" width="9.92" height="39.26"/>
    <rect class="cls-1" x="743.61" y="423.44" width="9.92" height="52.44"/>
    <path class="cls-1" d="M759.59,445.55c1.58-3.07,3.74-5.43,6.48-7.09,2.74-1.65,5.79-2.48,9.14-2.48,2.55,0,4.98.56,7.3,1.66,2.32,1.11,4.16,2.59,5.53,4.43v-18.64h10.06v52.44h-10.06v-5.81c-1.23,1.94-2.95,3.5-5.17,4.68-2.22,1.18-4.8,1.77-7.72,1.77-3.31,0-6.33-.85-9.07-2.55-2.74-1.7-4.9-4.1-6.48-7.19-1.58-3.09-2.38-6.65-2.38-10.67s.79-7.49,2.38-10.56M786.7,450.05c-.95-1.72-2.22-3.05-3.83-3.97-1.61-.92-3.33-1.38-5.17-1.38s-3.54.45-5.1,1.35c-1.56.9-2.82,2.21-3.79,3.93-.97,1.72-1.45,3.77-1.45,6.13s.48,4.43,1.45,6.2c.97,1.77,2.24,3.13,3.83,4.07,1.58.95,3.27,1.42,5.07,1.42s3.57-.46,5.17-1.38c1.61-.92,2.88-2.24,3.83-3.97.94-1.72,1.42-3.79,1.42-6.2s-.47-4.48-1.42-6.2"/>
    <path class="cls-1" d="M840.49,459.23h-28.7c.23,2.84,1.23,5.06,2.98,6.66,1.75,1.61,3.9,2.41,6.45,2.41,3.68,0,6.31-1.58,7.87-4.75h10.7c-1.13,3.78-3.31,6.89-6.52,9.32-3.22,2.43-7.16,3.65-11.84,3.65-3.78,0-7.17-.84-10.17-2.51s-5.34-4.05-7.02-7.12c-1.68-3.07-2.52-6.61-2.52-10.63s.83-7.63,2.48-10.7c1.65-3.07,3.97-5.43,6.94-7.09,2.98-1.65,6.4-2.48,10.28-2.48s7.08.8,10.03,2.41c2.95,1.61,5.24,3.89,6.88,6.84,1.63,2.95,2.45,6.34,2.45,10.17,0,1.42-.1,2.69-.28,3.83M830.49,452.56c-.05-2.55-.97-4.59-2.76-6.13-1.8-1.53-3.99-2.3-6.59-2.3-2.46,0-4.52.74-6.2,2.23-1.68,1.49-2.7,3.55-3.08,6.2h18.64Z"/>
    <path class="cls-1" d="M859.37,437.82c2.05-1.18,4.41-1.77,7.05-1.77v10.42h-2.62c-3.12,0-5.47.73-7.05,2.2s-2.37,4.02-2.37,7.65v19.56h-9.92v-39.26h9.92v6.1c1.28-2.08,2.94-3.71,5-4.89"/>
    <path class="cls-1" d="M503.51,433.27h0v41.46h9.92v-41.46h15.22v-8.01h-15c-4.83,0-9.02,3.31-10.14,8.01"/>
    <polygon class="cls-1" points="488.3 425.27 488.3 433.28 503.51 433.28 503.43 425.27 488.3 425.27"/>
    <path class="cls-1" d="M677.06,454.69c-1.8-2.27-4.09-3.66-6.88-4.18,2.55-.8,4.6-2.17,6.13-4.11,1.54-1.94,2.3-4.35,2.3-7.23,0-2.46-.63-4.65-1.88-6.59-1.25-1.94-3.09-3.45-5.53-4.54-2.43-1.09-5.33-1.63-8.68-1.63h-20.41v20.49h10.08s-.15.01-.15.01c-5.7.81-9.93,5.69-9.93,11.45v17.52h21.33c3.35,0,6.26-.57,8.72-1.7,2.46-1.13,4.34-2.7,5.64-4.71,1.3-2.01,1.95-4.33,1.95-6.98,0-2.93-.9-5.53-2.69-7.79M652.04,446.83v-12.4h9.07c2.36,0,4.18.54,5.46,1.63,1.28,1.09,1.91,2.62,1.91,4.61s-.64,3.51-1.91,4.57c-1.28,1.06-3.09,1.59-5.46,1.59h-9.07ZM667.67,466.1c-1.35,1.13-3.22,1.7-5.63,1.7h-9.99v-13.32h9.78c2.41,0,4.32.6,5.74,1.81,1.42,1.21,2.13,2.87,2.13,5s-.67,3.68-2.02,4.82"/>
    <path class="cls-1" d="M535.55,443.66h15.22v-8.01h-15c-3.22,0-6.15,1.47-8.09,3.85-1.4,1.72-2.05,3.92-2.05,6.13v29.11h9.92v-31.08Z"/>
  </g>
</svg>