<?xml version="1.0" encoding="UTF-8"?>
<svg id="Layer_2" data-name="Layer 2" xmlns="http://www.w3.org/2000/svg" viewBox="0 0 1009.96 129.3">
  <defs>
    <style>
      .cls-1 {
        fill: #0d0d0d;
      }
    </style>
  </defs>
  <g id="Layer_1-2" data-name="Layer 1">
    <g>
      <g>
        <polygon class="cls-1" points="101.48 67.47 97.02 60.09 93.36 60.09 93.36 60.09 60.28 60.09 60.28 60.1 83.65 98.08 36.91 98.08 22.87 120.87 17.68 129.3 24.2 129.3 29.1 129.3 93.22 129.3 98.35 129.3 103 129.3 106.73 122.37 120.3 98.08 113.2 86.52 101.48 67.47"/>
        <polygon class="cls-1" points="36.65 98.25 78.08 31.11 114.98 31.11 133.92 0 97.27 0 60.84 0 18.95 0 .02 31.11 41.58 31.11 0 98.25 36.65 98.25"/>
      </g>
      <g>
        <path class="cls-1" d="M385.5,34.48v81.52h-20.75v-10.3c-2.65,3.53-6.1,6.3-10.37,8.31-4.27,2.01-8.9,3.02-13.9,3.02-6.38,0-12.02-1.35-16.92-4.05-4.9-2.7-8.75-6.67-11.55-11.92-2.79-5.25-4.19-11.5-4.19-18.76v-47.82h20.6v44.88c0,6.47,1.62,11.45,4.85,14.93,3.24,3.48,7.65,5.23,13.24,5.23s10.15-1.74,13.39-5.23c3.24-3.48,4.85-8.46,4.85-14.93v-44.88h20.75Z"/>
        <path class="cls-1" d="M473.65,81.42h-59.59c.49,5.89,2.55,10.5,6.18,13.83,3.63,3.34,8.09,5,13.39,5,7.65,0,13.09-3.28,16.33-9.86h22.22c-2.35,7.85-6.87,14.3-13.54,19.35-6.67,5.05-14.86,7.58-24.57,7.58-7.85,0-14.89-1.74-21.12-5.22-6.23-3.48-11.09-8.41-14.57-14.79-3.48-6.37-5.23-13.73-5.23-22.07s1.72-15.84,5.15-22.22c3.43-6.38,8.24-11.28,14.42-14.71,6.18-3.43,13.29-5.15,21.34-5.15s14.69,1.67,20.82,5c6.13,3.33,10.89,8.07,14.27,14.2,3.38,6.13,5.08,13.17,5.08,21.11,0,2.94-.2,5.59-.59,7.95M452.9,67.59c-.1-5.3-2.01-9.54-5.74-12.73-3.73-3.19-8.29-4.78-13.68-4.78-5.1,0-9.39,1.55-12.88,4.64-3.48,3.09-5.62,7.38-6.4,12.87h38.7Z"/>
        <path class="cls-1" d="M943.76,117.15c-1.09-1.04-1.63-2.34-1.63-3.89s.54-2.85,1.63-3.89c1.09-1.04,2.47-1.56,4.16-1.56s2.99.52,4.06,1.56c1.07,1.04,1.6,2.34,1.6,3.89s-.53,2.85-1.6,3.89c-1.06,1.04-2.42,1.56-4.06,1.56s-3.07-.52-4.16-1.56"/>
        <path class="cls-1" d="M957.59,89.79c1.48-2.88,3.5-5.1,6.05-6.65,2.55-1.55,5.4-2.33,8.55-2.33,2.75,0,5.15.55,7.21,1.66,2.06,1.11,3.71,2.51,4.96,4.19v-5.25h9.38v36.84h-9.38v-5.39c-1.2,1.73-2.85,3.16-4.96,4.29-2.11,1.13-4.53,1.69-7.28,1.69-3.1,0-5.93-.8-8.48-2.39-2.55-1.6-4.57-3.85-6.05-6.75-1.49-2.9-2.23-6.24-2.23-10.01s.74-7.03,2.23-9.91M983.03,94.01c-.89-1.62-2.08-2.86-3.59-3.72-1.51-.86-3.12-1.3-4.85-1.3s-3.33.42-4.79,1.26c-1.46.84-2.65,2.07-3.56,3.69-.91,1.62-1.36,3.54-1.36,5.75s.45,4.16,1.36,5.82c.91,1.66,2.11,2.94,3.59,3.82,1.48.89,3.07,1.33,4.75,1.33s3.34-.43,4.85-1.3c1.51-.86,2.71-2.11,3.59-3.72.89-1.62,1.33-3.56,1.33-5.82s-.44-4.2-1.33-5.82"/>
        <path class="cls-1" d="M1000.15,75.46c-1.09-1.04-1.63-2.34-1.63-3.89s.54-2.85,1.63-3.89c1.09-1.04,2.45-1.56,4.09-1.56s3,.52,4.09,1.56c1.09,1.04,1.63,2.34,1.63,3.89s-.54,2.85-1.63,3.89c-1.09,1.04-2.45,1.56-4.09,1.56s-3-.52-4.09-1.56M1008.83,118.25h-9.31v-36.84h9.31v36.84Z"/>
        <path class="cls-1" d="M652.83,36.87v81.52h-20.75v-10.3c-2.65,3.53-6.11,6.3-10.38,8.31-4.27,2.01-8.9,3.02-13.9,3.02-6.38,0-12.02-1.35-16.92-4.05-4.91-2.7-8.75-6.67-11.55-11.92-2.79-5.25-4.19-11.5-4.19-18.76v-47.82h20.6v44.88c0,6.47,1.62,11.45,4.86,14.93,3.24,3.48,7.65,5.23,13.24,5.23s10.15-1.74,13.39-5.23c3.24-3.48,4.86-8.46,4.86-14.93v-44.88h20.75Z"/>
        <path class="cls-1" d="M676.23,28.91c3.63,0,6.64-1.15,9.05-3.46,2.4-2.31,3.6-5.17,3.6-8.61s-1.2-6.3-3.6-8.61c-2.41-2.3-5.42-3.46-9.05-3.46s-6.65,1.15-9.05,3.46c-2.41,2.3-3.61,5.18-3.61,8.61s1.2,6.3,3.61,8.61c2.4,2.3,5.42,3.46,9.05,3.46"/>
        <rect class="cls-1" x="665.78" y="36.87" width="20.6" height="81.52"/>
        <rect class="cls-1" x="699.33" y="9.5" width="20.6" height="108.89"/>
        <path class="cls-1" d="M732.51,55.41c3.29-6.38,7.77-11.28,13.46-14.71,5.69-3.43,12.02-5.15,18.98-5.15,5.3,0,10.35,1.15,15.15,3.46,4.81,2.31,8.63,5.37,11.48,9.2V9.5h20.9v108.89h-20.9v-12.07c-2.55,4.02-6.13,7.26-10.74,9.71-4.61,2.45-9.96,3.68-16.04,3.68-6.87,0-13.15-1.76-18.84-5.3-5.69-3.53-10.18-8.51-13.46-14.94-3.29-6.42-4.93-13.81-4.93-22.15s1.64-15.55,4.93-21.92M788.79,64.75c-1.96-3.58-4.61-6.33-7.95-8.24-3.34-1.91-6.92-2.87-10.74-2.87s-7.36.93-10.6,2.79c-3.24,1.87-5.86,4.59-7.87,8.17-2.01,3.58-3.02,7.82-3.02,12.73s1,9.2,3.02,12.88c2.01,3.68,4.66,6.5,7.95,8.46,3.29,1.96,6.79,2.94,10.52,2.94s7.41-.96,10.74-2.87c3.33-1.91,5.98-4.66,7.95-8.24,1.96-3.58,2.94-7.87,2.94-12.87s-.98-9.29-2.94-12.87"/>
        <path class="cls-1" d="M900.48,83.81h-59.59c.49,5.89,2.55,10.5,6.18,13.83,3.63,3.34,8.09,5,13.39,5,7.65,0,13.1-3.28,16.33-9.86h22.22c-2.35,7.85-6.87,14.3-13.54,19.35-6.68,5.05-14.86,7.58-24.57,7.58-7.85,0-14.89-1.74-21.12-5.22s-11.09-8.41-14.57-14.79c-3.48-6.37-5.22-13.73-5.22-22.07s1.71-15.84,5.15-22.22c3.43-6.37,8.24-11.28,14.42-14.71,6.18-3.43,13.29-5.15,21.34-5.15s14.69,1.67,20.82,5c6.13,3.33,10.89,8.07,14.27,14.2,3.38,6.13,5.08,13.17,5.08,21.11,0,2.94-.2,5.59-.59,7.95M879.73,69.97c-.1-5.3-2.01-9.54-5.74-12.73-3.73-3.19-8.29-4.78-13.68-4.78-5.1,0-9.39,1.55-12.88,4.64-3.48,3.09-5.62,7.38-6.4,12.87h38.7Z"/>
        <path class="cls-1" d="M939.69,39.37c4.27-2.45,9.15-3.68,14.64-3.68v21.63h-5.44c-6.47,0-11.36,1.52-14.64,4.56s-4.93,8.34-4.93,15.89v40.61h-20.6V36.86h20.6v12.66c2.65-4.32,6.11-7.7,10.38-10.15"/>
        <path class="cls-1" d="M200.84,29.92h0v86.08h20.6V29.92h31.59V13.29h-31.14c-10.02,0-18.73,6.88-21.05,16.63"/>
        <polygon class="cls-1" points="169.25 13.29 169.25 29.92 200.84 29.92 200.65 13.29 169.25 13.29"/>
        <path class="cls-1" d="M561.16,74.39c-3.73-4.71-8.49-7.6-14.27-8.68,5.3-1.67,9.54-4.51,12.73-8.54,3.19-4.02,4.78-9.03,4.78-15.01,0-5.1-1.3-9.66-3.9-13.69-2.6-4.02-6.42-7.16-11.48-9.42-5.05-2.26-11.06-3.39-18.03-3.39h-42.38v42.54l20.93-.02-.32.05c-11.83,1.69-20.61,11.82-20.61,23.76v36.37h44.29c6.96,0,13-1.18,18.1-3.53,5.1-2.35,9-5.61,11.7-9.79,2.7-4.17,4.05-9,4.05-14.49,0-6.08-1.87-11.48-5.59-16.18M509.22,58.06v-25.75h18.84c4.9,0,8.68,1.13,11.33,3.38,2.65,2.26,3.97,5.45,3.97,9.57s-1.32,7.28-3.97,9.49c-2.65,2.2-6.43,3.31-11.33,3.31h-18.84ZM541.66,98.08c-2.79,2.35-6.69,3.53-11.7,3.53h-20.75v-27.66h20.31c5,0,8.98,1.25,11.92,3.75,2.94,2.5,4.41,5.96,4.41,10.38s-1.4,7.65-4.19,10.01"/>
        <path class="cls-1" d="M267.36,51.47h31.59v-16.63h-31.14c-6.68,0-12.78,3.06-16.79,7.99-2.9,3.56-4.26,8.13-4.26,12.72v60.45h20.6V51.47Z"/>
      </g>
    </g>
  </g>
</svg>